<mxfile host="app.diagrams.net" modified="2022-10-27T12:07:37.077Z" agent="5.0 (Macintosh; Intel Mac OS X 10_15_7) AppleWebKit/537.36 (KHTML, like Gecko) Chrome/107.0.0.0 Safari/537.36" etag="-gQecZQf4MYoEiXGQC7U" version="20.5.1" type="github">
  <diagram id="YhSLa88WdbjuSZRHGqEO" name="第 1 页">
    <mxGraphModel dx="2061" dy="1963" grid="1" gridSize="10" guides="1" tooltips="1" connect="1" arrows="1" fold="1" page="1" pageScale="1" pageWidth="827" pageHeight="1169" math="0" shadow="0">
      <root>
        <mxCell id="0" />
        <mxCell id="1" parent="0" />
        <mxCell id="yIU19AbfIXz-dAIO5W8J-33" value="" style="endArrow=none;html=1;rounded=0;fontFamily=Times New Roman;fontSize=18;fontColor=default;dashed=1;" edge="1" parent="1">
          <mxGeometry width="50" height="50" relative="1" as="geometry">
            <mxPoint y="360" as="sourcePoint" />
            <mxPoint x="-1" y="-100" as="targetPoint" />
          </mxGeometry>
        </mxCell>
        <mxCell id="yIU19AbfIXz-dAIO5W8J-1" value="&lt;pre style=&quot;font-family: &amp;quot;JetBrains Mono&amp;quot;, monospace; font-size: 9.8pt;&quot;&gt;&lt;span style=&quot;background-color: rgb(255, 204, 230);&quot;&gt;/******/ (function(modules) { // webpackBootstrap&lt;/span&gt;&lt;span style=&quot;background-color: rgb(230, 208, 222);&quot;&gt;&lt;br&gt;&lt;/span&gt;&lt;span style=&quot;background-color: rgb(204, 204, 204);&quot;&gt;/******/ // &lt;/span&gt;&lt;span style=&quot;font-family: Menlo-Regular, monospace;&quot;&gt;&lt;span style=&quot;background-color: rgb(204, 204, 204);&quot;&gt;运行时代码&lt;/span&gt;&lt;span style=&quot;background-color: rgb(230, 208, 222);&quot;&gt;&lt;br&gt;&lt;/span&gt;&lt;/span&gt;&lt;span style=&quot;background-color: rgb(255, 204, 230);&quot;&gt;/******/ })&lt;br&gt;&lt;/span&gt;&lt;span style=&quot;&quot;&gt;&lt;span style=&quot;background-color: rgb(255, 204, 230);&quot;&gt;/************************************************************************/&lt;/span&gt;&lt;br&gt;&lt;/span&gt;&lt;span style=&quot;background-color: rgb(255, 204, 230);&quot;&gt;&lt;span style=&quot;&quot;&gt;/******/ &lt;/span&gt;(&lt;/span&gt;&lt;/pre&gt;&lt;pre style=&quot;font-family: &amp;quot;JetBrains Mono&amp;quot;, monospace; font-size: 9.8pt;&quot;&gt;&lt;span style=&quot;background-color: rgb(204, 204, 255);&quot;&gt;[&lt;br&gt;&lt;/span&gt;&lt;span style=&quot;&quot;&gt;&lt;span style=&quot;background-color: rgb(204, 204, 255);&quot;&gt;/* 0 */&lt;/span&gt;&lt;br&gt;&lt;/span&gt;&lt;span style=&quot;background-color: rgb(204, 255, 204);&quot;&gt;&lt;span style=&quot;&quot;&gt;/***/ &lt;/span&gt;(&lt;span style=&quot;&quot;&gt;function&lt;/span&gt;(module&lt;span style=&quot;&quot;&gt;, &lt;/span&gt;__webpack_exports__&lt;span style=&quot;&quot;&gt;, &lt;/span&gt;__webpack_require__) {&lt;/span&gt;&lt;br&gt;&lt;span style=&quot;background-color: rgb(255, 255, 204);&quot;&gt;    &lt;span style=&quot;&quot;&gt;// &lt;/span&gt;&lt;span style=&quot;font-family: Menlo-Regular, monospace;&quot;&gt;模块&lt;/span&gt;&lt;span style=&quot;&quot;&gt;main.js&lt;/span&gt;&lt;/span&gt;&lt;span style=&quot;font-family: Menlo-Regular, monospace;&quot;&gt;&lt;span style=&quot;background-color: rgb(255, 255, 204);&quot;&gt;的构建后的内容&lt;/span&gt;&lt;br&gt;&lt;/span&gt;&lt;span style=&quot;background-color: rgb(204, 255, 204);&quot;&gt;&lt;span style=&quot;&quot;&gt;/***/ &lt;/span&gt;})&lt;/span&gt;&lt;span style=&quot;background-color: rgb(204, 204, 255);&quot;&gt;,&lt;br&gt;&lt;/span&gt;&lt;span style=&quot;&quot;&gt;&lt;span style=&quot;background-color: rgb(204, 204, 255);&quot;&gt;/* 1 */&lt;/span&gt;&lt;br&gt;&lt;/span&gt;&lt;span style=&quot;background-color: rgb(204, 255, 204);&quot;&gt;&lt;span style=&quot;&quot;&gt;/***/ &lt;/span&gt;(&lt;span style=&quot;&quot;&gt;function&lt;/span&gt;(module&lt;span style=&quot;&quot;&gt;, &lt;/span&gt;__webpack_exports__&lt;span style=&quot;&quot;&gt;, &lt;/span&gt;__webpack_require__) {&lt;/span&gt;&lt;br&gt;&lt;span style=&quot;background-color: rgb(255, 255, 204);&quot;&gt;    &lt;span style=&quot;&quot;&gt;// &lt;/span&gt;&lt;span style=&quot;font-family: Menlo-Regular, monospace;&quot;&gt;模块&lt;/span&gt;&lt;span style=&quot;&quot;&gt;a.js&lt;/span&gt;&lt;/span&gt;&lt;span style=&quot;font-family: Menlo-Regular, monospace;&quot;&gt;&lt;span style=&quot;background-color: rgb(255, 255, 204);&quot;&gt;的构建后的内容&lt;/span&gt;&lt;br&gt;&lt;/span&gt;&lt;span style=&quot;background-color: rgb(204, 255, 204);&quot;&gt;&lt;span style=&quot;&quot;&gt;/***/ &lt;/span&gt;})&lt;/span&gt;&lt;span style=&quot;background-color: rgb(204, 204, 255);&quot;&gt;,&lt;br&gt;&lt;/span&gt;&lt;span style=&quot;&quot;&gt;&lt;span style=&quot;background-color: rgb(204, 204, 255);&quot;&gt;/* 2 */&lt;/span&gt;&lt;/span&gt;&lt;/pre&gt;&lt;pre style=&quot;font-family: &amp;quot;JetBrains Mono&amp;quot;, monospace; font-size: 9.8pt;&quot;&gt;&lt;span style=&quot;&quot;&gt;&lt;br&gt;&lt;/span&gt;&lt;span style=&quot;background-color: rgb(204, 255, 204);&quot;&gt;&lt;span style=&quot;&quot;&gt;/***/ &lt;/span&gt;(&lt;span style=&quot;&quot;&gt;function&lt;/span&gt;(module&lt;span style=&quot;&quot;&gt;, &lt;/span&gt;__webpack_exports__&lt;span style=&quot;&quot;&gt;, &lt;/span&gt;__webpack_require__) {&lt;/span&gt;&lt;br&gt;&lt;span style=&quot;background-color: rgb(255, 255, 204);&quot;&gt;    &lt;span style=&quot;&quot;&gt;// &lt;/span&gt;&lt;span style=&quot;font-family: Menlo-Regular, monospace;&quot;&gt;模块&lt;/span&gt;&lt;span style=&quot;&quot;&gt;c.js&lt;/span&gt;&lt;/span&gt;&lt;span style=&quot;font-family: Menlo-Regular, monospace;&quot;&gt;&lt;span style=&quot;background-color: rgb(255, 255, 204);&quot;&gt;的构建后的内容&lt;/span&gt;&lt;br&gt;&lt;/span&gt;&lt;span style=&quot;background-color: rgb(204, 255, 204);&quot;&gt;&lt;span style=&quot;&quot;&gt;/***/ &lt;/span&gt;})&lt;/span&gt;&lt;/pre&gt;&lt;pre style=&quot;font-family: &amp;quot;JetBrains Mono&amp;quot;, monospace; font-size: 9.8pt;&quot;&gt;&lt;br&gt;&lt;span style=&quot;background-color: rgb(204, 204, 255);&quot;&gt;/******/ ]&lt;/span&gt;&lt;span style=&quot;background-color: rgb(255, 204, 230);&quot;&gt;)&lt;/span&gt;&lt;span style=&quot;&quot;&gt;;&lt;/span&gt;&lt;/pre&gt;" style="text;whiteSpace=wrap;html=1;labelBackgroundColor=none;fontColor=default;verticalAlign=middle;" vertex="1" parent="1">
          <mxGeometry x="10" y="10" width="640" height="300" as="geometry" />
        </mxCell>
        <mxCell id="yIU19AbfIXz-dAIO5W8J-7" value="&lt;span style=&quot;font-size: 18px;&quot;&gt;Template.renderChunkModules&lt;/span&gt;" style="text;whiteSpace=wrap;html=1;labelBackgroundColor=#CCCCFF;verticalAlign=middle;align=left;dashed=1;aspect=fixed;fontStyle=0;fontFamily=Times New Roman;fontSize=18;" vertex="1" parent="1">
          <mxGeometry x="-300" y="80" width="300" height="48" as="geometry" />
        </mxCell>
        <mxCell id="yIU19AbfIXz-dAIO5W8J-8" value="&lt;span style=&quot;font-size: 18px; font-style: normal; font-variant-ligatures: normal; font-variant-caps: normal; letter-spacing: normal; orphans: 2; text-indent: 0px; text-transform: none; widows: 2; word-spacing: 0px; -webkit-text-stroke-width: 0px; text-decoration-thickness: initial; text-decoration-style: initial; text-decoration-color: initial; float: none; display: inline !important; background-color: rgb(204, 204, 204);&quot;&gt;mainTemplate.renderBootstrap&lt;/span&gt;" style="text;whiteSpace=wrap;html=1;verticalAlign=middle;align=left;labelBackgroundColor=#D5E8D4;dashed=1;aspect=fixed;fontStyle=0;fontFamily=Times New Roman;fontSize=18;" vertex="1" parent="1">
          <mxGeometry x="-300" y="18" width="300" height="48" as="geometry" />
        </mxCell>
        <mxCell id="yIU19AbfIXz-dAIO5W8J-9" value="&lt;span style=&quot;box-sizing: border-box; color: rgb(51, 51, 51); font-size: 18px; font-style: normal; font-variant-ligatures: normal; font-variant-caps: normal; letter-spacing: normal; orphans: 2; text-indent: 0px; text-transform: none; widows: 2; word-spacing: 0px; -webkit-text-stroke-width: 0px; text-decoration-thickness: initial; text-decoration-style: initial; text-decoration-color: initial;&quot; class=&quot;hljs-property&quot;&gt;mainTemplate.hooks&lt;/span&gt;&lt;span style=&quot;color: rgb(51, 51, 51); font-size: 18px; font-style: normal; font-variant-ligatures: normal; font-variant-caps: normal; letter-spacing: normal; orphans: 2; text-indent: 0px; text-transform: none; widows: 2; word-spacing: 0px; -webkit-text-stroke-width: 0px; text-decoration-thickness: initial; text-decoration-style: initial; text-decoration-color: initial; float: none; display: inline !important;&quot;&gt;.&lt;/span&gt;&lt;span style=&quot;box-sizing: border-box; color: rgb(51, 51, 51); font-size: 18px; font-style: normal; font-variant-ligatures: normal; font-variant-caps: normal; letter-spacing: normal; orphans: 2; text-indent: 0px; text-transform: none; widows: 2; word-spacing: 0px; -webkit-text-stroke-width: 0px; text-decoration-thickness: initial; text-decoration-style: initial; text-decoration-color: initial;&quot; class=&quot;hljs-property&quot;&gt;render&lt;/span&gt;&lt;span style=&quot;color: rgb(51, 51, 51); font-size: 18px; font-style: normal; font-variant-ligatures: normal; font-variant-caps: normal; letter-spacing: normal; orphans: 2; text-indent: 0px; text-transform: none; widows: 2; word-spacing: 0px; -webkit-text-stroke-width: 0px; text-decoration-thickness: initial; text-decoration-style: initial; text-decoration-color: initial; float: none; display: inline !important;&quot;&gt;.tap&lt;/span&gt;" style="text;whiteSpace=wrap;html=1;verticalAlign=middle;align=left;labelBackgroundColor=#FFCCE6;dashed=1;aspect=fixed;fontStyle=0;fontFamily=Times New Roman;fontSize=18;" vertex="1" parent="1">
          <mxGeometry x="-300" y="-30" width="300" height="48" as="geometry" />
        </mxCell>
        <mxCell id="yIU19AbfIXz-dAIO5W8J-10" value="&lt;div style=&quot;font-size: 18px;&quot;&gt;&lt;div style=&quot;font-size: 18px;&quot;&gt;&lt;span style=&quot;background-color: rgb(204, 255, 204); font-size: 18px;&quot;&gt;// FunctionModuleTemplatePlugin.js&lt;br style=&quot;font-size: 18px;&quot;&gt;&lt;/span&gt;&lt;div style=&quot;font-size: 18px;&quot;&gt;&lt;span style=&quot;background-color: rgb(204, 255, 204); font-size: 18px;&quot;&gt;moduleTemplate.&lt;span style=&quot;font-size: 18px;&quot;&gt;hooks&lt;/span&gt;.&lt;span style=&quot;font-size: 18px;&quot;&gt;render&lt;/span&gt;.&lt;span style=&quot;font-size: 18px;&quot;&gt;tap&lt;/span&gt;&lt;/span&gt;&lt;/div&gt;&lt;/div&gt;&lt;/div&gt;" style="text;whiteSpace=wrap;html=1;verticalAlign=middle;align=left;labelBackgroundColor=none;dashed=1;aspect=fixed;fontStyle=0;fontFamily=Times New Roman;fontSize=18;" vertex="1" parent="1">
          <mxGeometry x="-300" y="240" width="300" height="53.57" as="geometry" />
        </mxCell>
        <mxCell id="yIU19AbfIXz-dAIO5W8J-11" value="&lt;div style=&quot;font-size: 18px;&quot;&gt;&lt;div style=&quot;font-size: 18px;&quot;&gt;&lt;span style=&quot;background-color: rgb(255, 255, 204); font-size: 18px;&quot;&gt;module.&lt;span style=&quot;font-size: 18px;&quot;&gt;source&lt;/span&gt;&lt;/span&gt;&lt;/div&gt;&lt;/div&gt;" style="text;whiteSpace=wrap;html=1;verticalAlign=middle;align=left;labelBackgroundColor=default;dashed=1;aspect=fixed;fontStyle=0;fontFamily=Times New Roman;fontSize=18;" vertex="1" parent="1">
          <mxGeometry x="-300" y="284" width="300" height="48" as="geometry" />
        </mxCell>
        <mxCell id="yIU19AbfIXz-dAIO5W8J-15" value="" style="rounded=0;whiteSpace=wrap;html=1;labelBackgroundColor=none;strokeColor=#0000FF;fontFamily=Times New Roman;fontSize=18;fontColor=default;fillColor=none;" vertex="1" parent="1">
          <mxGeometry x="-550" y="250" width="1150" height="70" as="geometry" />
        </mxCell>
        <mxCell id="yIU19AbfIXz-dAIO5W8J-21" style="edgeStyle=orthogonalEdgeStyle;rounded=0;orthogonalLoop=1;jettySize=auto;html=1;entryX=0;entryY=0.5;entryDx=0;entryDy=0;fontFamily=Times New Roman;fontSize=18;fontColor=default;" edge="1" parent="1" source="yIU19AbfIXz-dAIO5W8J-20" target="yIU19AbfIXz-dAIO5W8J-10">
          <mxGeometry relative="1" as="geometry" />
        </mxCell>
        <mxCell id="yIU19AbfIXz-dAIO5W8J-22" style="edgeStyle=orthogonalEdgeStyle;rounded=0;orthogonalLoop=1;jettySize=auto;html=1;fontFamily=Times New Roman;fontSize=18;fontColor=default;" edge="1" parent="1" source="yIU19AbfIXz-dAIO5W8J-20" target="yIU19AbfIXz-dAIO5W8J-11">
          <mxGeometry relative="1" as="geometry" />
        </mxCell>
        <mxCell id="yIU19AbfIXz-dAIO5W8J-20" value="&lt;h3 style=&quot;color: rgb(0, 0, 0); font-style: normal; font-variant-ligatures: normal; font-variant-caps: normal; letter-spacing: normal; orphans: 2; text-indent: 0px; text-transform: none; widows: 2; word-spacing: 0px; -webkit-text-stroke-width: 0px; background-color: rgb(248, 249, 250); text-decoration-thickness: initial; text-decoration-style: initial; text-decoration-color: initial; box-sizing: border-box; line-height: 1.5; margin-top: 35px; margin-bottom: 10px; padding-bottom: 0px; font-size: 18px;&quot;&gt;moduleTemplate.render&lt;/h3&gt;" style="text;whiteSpace=wrap;html=1;fontColor=default;verticalAlign=bottom;align=left;fontStyle=0;fontFamily=Times New Roman;fontSize=18;" vertex="1" parent="1">
          <mxGeometry x="-540" y="260" width="190" height="50" as="geometry" />
        </mxCell>
        <mxCell id="yIU19AbfIXz-dAIO5W8J-24" style="edgeStyle=orthogonalEdgeStyle;rounded=0;orthogonalLoop=1;jettySize=auto;html=1;entryX=0;entryY=0.5;entryDx=0;entryDy=0;fontFamily=Times New Roman;fontSize=18;fontColor=default;" edge="1" parent="1" source="yIU19AbfIXz-dAIO5W8J-23" target="yIU19AbfIXz-dAIO5W8J-9">
          <mxGeometry relative="1" as="geometry" />
        </mxCell>
        <mxCell id="yIU19AbfIXz-dAIO5W8J-25" style="edgeStyle=orthogonalEdgeStyle;rounded=0;orthogonalLoop=1;jettySize=auto;html=1;fontFamily=Times New Roman;fontSize=18;fontColor=default;" edge="1" parent="1" source="yIU19AbfIXz-dAIO5W8J-23" target="yIU19AbfIXz-dAIO5W8J-8">
          <mxGeometry relative="1" as="geometry" />
        </mxCell>
        <mxCell id="yIU19AbfIXz-dAIO5W8J-23" value="&lt;h3 style=&quot;color: rgb(0, 0, 0); font-style: normal; font-variant-ligatures: normal; font-variant-caps: normal; letter-spacing: normal; orphans: 2; text-indent: 0px; text-transform: none; widows: 2; word-spacing: 0px; -webkit-text-stroke-width: 0px; background-color: rgb(248, 249, 250); text-decoration-thickness: initial; text-decoration-style: initial; text-decoration-color: initial; box-sizing: border-box; line-height: 1.5; margin-top: 35px; margin-bottom: 10px; padding-bottom: 0px; font-size: 18px;&quot;&gt;mainTemplate.render&lt;/h3&gt;" style="text;whiteSpace=wrap;html=1;fontColor=default;verticalAlign=bottom;align=left;fontStyle=0;fontFamily=Times New Roman;fontSize=18;" vertex="1" parent="1">
          <mxGeometry x="-530" y="-10" width="170" height="50" as="geometry" />
        </mxCell>
        <mxCell id="yIU19AbfIXz-dAIO5W8J-32" value="" style="rounded=0;whiteSpace=wrap;html=1;labelBackgroundColor=none;strokeColor=#FF8000;fontFamily=Times New Roman;fontSize=18;fontColor=default;fillColor=none;" vertex="1" parent="1">
          <mxGeometry x="-550" y="-34" width="1150" height="100" as="geometry" />
        </mxCell>
        <mxCell id="yIU19AbfIXz-dAIO5W8J-34" value="构建产物：chunkMain.js" style="text;html=1;strokeColor=#6c8ebf;fillColor=#dae8fc;align=center;verticalAlign=middle;whiteSpace=wrap;rounded=0;labelBackgroundColor=none;strokeWidth=3;fontFamily=Times New Roman;fontSize=18;" vertex="1" parent="1">
          <mxGeometry x="184" y="-80" width="230" height="30" as="geometry" />
        </mxCell>
        <mxCell id="yIU19AbfIXz-dAIO5W8J-35" style="edgeStyle=orthogonalEdgeStyle;rounded=0;orthogonalLoop=1;jettySize=auto;html=1;exitX=0.5;exitY=1;exitDx=0;exitDy=0;dashed=1;fontFamily=Times New Roman;fontSize=18;fontColor=default;" edge="1" parent="1" source="yIU19AbfIXz-dAIO5W8J-34" target="yIU19AbfIXz-dAIO5W8J-34">
          <mxGeometry relative="1" as="geometry" />
        </mxCell>
        <mxCell id="yIU19AbfIXz-dAIO5W8J-36" value="生成过程" style="text;html=1;strokeColor=#6c8ebf;fillColor=#dae8fc;align=center;verticalAlign=middle;whiteSpace=wrap;rounded=0;labelBackgroundColor=none;strokeWidth=3;fontFamily=Times New Roman;fontSize=18;" vertex="1" parent="1">
          <mxGeometry x="-360" y="-80" width="230" height="30" as="geometry" />
        </mxCell>
      </root>
    </mxGraphModel>
  </diagram>
</mxfile>
